<svg xmlns="http://www.w3.org/2000/svg" width="229" height="78" viewBox="0 0 229 78" fill="none"><g opacity="0.1"><path d="M29.8157 75.1427C29.8157 75.1427 29.9767 74.6258 30.074 73.7809C30.6766 68.7944 28.3714 64.8255 24.5347 61.6028C22.6843 64.1425 22.3477 70.3875 29.8157 75.1427Z" fill="white"></path><path d="M20.3844 67.0298C21.7608 63.8149 21.5862 58.2595 16.9461 53.2955C14.0524 55.9701 14.1945 62.2978 20.3844 67.0298Z" fill="white"></path><path d="M10.5961 13.058C13.9021 11.8911 17.4109 7.23921 17.413 0C14.5559 0.759551 9.29859 5.50271 10.5961 13.058Z" fill="white"></path><path d="M11.8205 55.0992C14.5981 52.205 15.8658 47.4063 13.7599 41.6456C10.2475 43.0249 7.80019 48.5468 11.8205 55.0992Z" fill="white"></path><path d="M7.59033 42.5431C10.0591 41.2687 13.4308 37.6359 12.9695 31.0795C9.99407 31.4399 5.99209 35.3033 7.59033 42.5431Z" fill="white"></path><path d="M7.41772 31.2202C10.7445 30.2863 13.8694 26.9802 14.2711 21.183C11.1236 21.1331 7.1533 24.655 7.41772 31.2202Z" fill="white"></path><path d="M8.88291 20.5256C11.6202 20.2284 15.0672 17.8808 16.0944 12.4455C14.031 12.1764 9.76999 13.8777 8.88291 20.5256Z" fill="white"></path><path d="M29.4531 75.7702C29.4531 75.7702 29.0512 76.1111 28.2975 76.505C23.2891 79.1086 17.7609 76.7482 13.8518 71.989C18.2989 69.3815 25.1288 72.7281 29.4531 75.7702Z" fill="white"></path><path d="M19.4345 67.9829C15.2357 69.8928 8.54693 67.3578 5.86464 59.356C10.9002 58.5049 16.2989 63.9843 19.4345 67.9829Z" fill="white"></path><path d="M11.013 55.4819C6.2701 56.3407 0.653997 51.6483 0.39843 43.8385C5.31886 44.3292 9.01771 50.9641 11.013 55.4819Z" fill="white"></path><path d="M6.45848 42.769C6.45848 42.769 5.99178 42.6921 5.29574 42.415C0.879631 40.6666 -0.813802 35.4323 0.3633 30.0546C4.65783 31.6254 6.05663 38.1741 6.45848 42.769Z" fill="white"></path><path d="M6.36274 30.8886C2.73547 29.685 0.00701952 24.783 2.13184 18.2727C6.04191 20.1482 6.67296 26.4149 6.36274 30.8886Z" fill="white"></path><path d="M7.7675 20.135C5.61355 18.7963 3.17883 14.4823 6.45836 8.64914C9.57331 10.943 8.99288 16.2822 7.7675 20.135Z" fill="white"></path><path d="M198.353 75.1427C198.353 75.1427 198.192 74.6258 198.095 73.7809C197.493 68.7944 199.798 64.8255 203.635 61.6028C205.485 64.1425 205.821 70.3875 198.353 75.1427Z" fill="white"></path><path d="M207.785 67.0298C206.408 63.8149 206.583 58.2595 211.223 53.2955C214.117 55.9701 213.975 62.2978 207.785 67.0298Z" fill="white"></path><path d="M217.573 13.058C214.267 11.8911 210.758 7.23921 210.756 0C213.613 0.759551 218.871 5.50271 217.573 13.058Z" fill="white"></path><path d="M216.349 55.0992C213.571 52.205 212.303 47.4063 214.409 41.6456C217.922 43.0249 220.369 48.5468 216.349 55.0992Z" fill="white"></path><path d="M220.579 42.5431C218.11 41.2687 214.738 37.6359 215.2 31.0795C218.175 31.4399 222.177 35.3033 220.579 42.5431Z" fill="white"></path><path d="M220.751 31.2202C217.425 30.2863 214.3 26.9802 213.898 21.183C217.046 21.1331 221.016 24.655 220.751 31.2202Z" fill="white"></path><path d="M219.286 20.5256C216.549 20.2284 213.102 17.8808 212.075 12.4455C214.138 12.1764 218.399 13.8777 219.286 20.5256Z" fill="white"></path><path d="M198.716 75.7702C198.716 75.7702 199.118 76.1111 199.872 76.505C204.88 79.1086 210.408 76.7482 214.317 71.989C209.87 69.3815 203.04 72.7281 198.716 75.7702Z" fill="white"></path><path d="M208.735 67.9829C212.933 69.8928 219.622 67.3578 222.305 59.356C217.269 58.5049 211.87 63.9843 208.735 67.9829Z" fill="white"></path><path d="M217.156 55.4819C221.899 56.3407 227.515 51.6483 227.771 43.8385C222.85 44.3292 219.151 50.9641 217.156 55.4819Z" fill="white"></path><path d="M221.711 42.769C221.711 42.769 222.177 42.6921 222.873 42.415C227.29 40.6666 228.983 35.4323 227.806 30.0546C223.511 31.6254 222.113 38.1741 221.711 42.769Z" fill="white"></path><path d="M221.806 30.8886C225.434 29.685 228.162 24.783 226.037 18.2727C222.127 20.1482 221.496 26.4149 221.806 30.8886Z" fill="white"></path><path d="M220.402 20.135C222.556 18.7963 224.99 14.4823 221.711 8.64914C218.596 10.943 219.176 16.2822 220.402 20.135Z" fill="white"></path></g></svg>